<?xml version="1.0" encoding="UTF-8" standalone="no"?>
<svg
   viewBox="0 0 24 24"
   width="512"
   height="512"
   version="1.1"
   id="svg4"
   sodipodi:docname="tiles.svg"
   inkscape:version="1.3.2 (091e20ef0f, 2023-11-25)"
   xmlns:inkscape="http://www.inkscape.org/namespaces/inkscape"
   xmlns:sodipodi="http://sodipodi.sourceforge.net/DTD/sodipodi-0.dtd"
   xmlns="http://www.w3.org/2000/svg"
   xmlns:svg="http://www.w3.org/2000/svg">
  <defs
     id="defs4" />
  <sodipodi:namedview
     id="namedview4"
     pagecolor="#ffffff"
     bordercolor="#000000"
     borderopacity="0.25"
     inkscape:showpageshadow="2"
     inkscape:pageopacity="0.0"
     inkscape:pagecheckerboard="0"
     inkscape:deskcolor="#d1d1d1"
     inkscape:zoom="1.5859375"
     inkscape:cx="255.68473"
     inkscape:cy="256"
     inkscape:window-width="1920"
     inkscape:window-height="1016"
     inkscape:window-x="0"
     inkscape:window-y="0"
     inkscape:window-maximized="1"
     inkscape:current-layer="svg4" />
  <g
     id="_01_align_center"
     data-name="01 align center">
    <path
       d="M11,11H0V3A3,3,0,0,1,3,0h8ZM2,9H9V2H3A1,1,0,0,0,2,3Z"
       id="path1"
       style="fill:#ffffff" />
    <path
       d="M24,11H13V0h8a3,3,0,0,1,3,3ZM15,9h7V3a1,1,0,0,0-1-1H15Z"
       id="path2"
       style="fill:#ffffff" />
    <path
       d="M11,24H3a3,3,0,0,1-3-3V13H11ZM2,15v6a1,1,0,0,0,1,1H9V15Z"
       id="path3"
       style="fill:#ffffff" />
    <path
       d="M21,24H13V13H24v8A3,3,0,0,1,21,24Zm-6-2h6a1,1,0,0,0,1-1V15H15Z"
       id="path4"
       style="fill:#ffffff" />
  </g>
</svg>
